<mxfile host="65bd71144e" modified="2021-01-17T03:58:03.546Z" agent="5.0 (Macintosh; Intel Mac OS X 11_0_0) AppleWebKit/537.36 (KHTML, like Gecko) Code/1.52.1 Chrome/83.0.4103.122 Electron/9.3.5 Safari/537.36" etag="WWR0puj5_2zweWHGkHFv" version="13.10.0" type="embed">
    <diagram id="iIXztSPzHfxf6PQT3qez" name="第 1 页">
        <mxGraphModel dx="2035" dy="745" grid="1" gridSize="10" guides="1" tooltips="1" connect="1" arrows="1" fold="1" page="1" pageScale="1" pageWidth="827" pageHeight="1169" math="0" shadow="0">
            <root>
                <mxCell id="0"/>
                <mxCell id="1" parent="0"/>
                <mxCell id="151" value="ip 端口/port 执行中的程序" style="rounded=0;whiteSpace=wrap;html=1;" parent="1" vertex="1">
                    <mxGeometry x="1142.5" y="1650" width="657.5" height="60" as="geometry"/>
                </mxCell>
                <mxCell id="140" value="" style="ellipse;whiteSpace=wrap;html=1;aspect=fixed;strokeColor=#000000;align=center;" parent="1" vertex="1">
                    <mxGeometry x="690" y="1580" width="80" height="80" as="geometry"/>
                </mxCell>
                <mxCell id="139" value="" style="ellipse;whiteSpace=wrap;html=1;aspect=fixed;strokeColor=#000000;align=center;" parent="1" vertex="1">
                    <mxGeometry x="700" y="1590" width="80" height="80" as="geometry"/>
                </mxCell>
                <mxCell id="101" value="" style="rounded=1;whiteSpace=wrap;html=1;strokeColor=#000000;align=center;" parent="1" vertex="1">
                    <mxGeometry x="-30" y="210" width="740" height="670" as="geometry"/>
                </mxCell>
                <mxCell id="86" value="" style="rounded=1;whiteSpace=wrap;html=1;strokeColor=#000000;align=center;" parent="1" vertex="1">
                    <mxGeometry x="10" y="230" width="510" height="280" as="geometry"/>
                </mxCell>
                <mxCell id="79" value="虚拟化服务" style="rounded=1;whiteSpace=wrap;html=1;strokeColor=#000000;align=center;" parent="1" vertex="1">
                    <mxGeometry x="2710" y="340" width="410" height="180" as="geometry"/>
                </mxCell>
                <mxCell id="2" value="电脑/ （输入输出， io），cpu，内存，硬盘&lt;br&gt;&lt;br&gt;网络，io" style="rounded=0;whiteSpace=wrap;html=1;" parent="1" vertex="1">
                    <mxGeometry x="40" y="40" width="760" height="60" as="geometry"/>
                </mxCell>
                <mxCell id="3" value="我的电脑" style="rounded=0;whiteSpace=wrap;html=1;" parent="1" vertex="1">
                    <mxGeometry x="40" y="280" width="120" height="60" as="geometry"/>
                </mxCell>
                <mxCell id="4" value="我的手机" style="rounded=0;whiteSpace=wrap;html=1;" parent="1" vertex="1">
                    <mxGeometry x="360" y="280" width="120" height="60" as="geometry"/>
                </mxCell>
                <mxCell id="5" value="" style="endArrow=none;html=1;" parent="1" source="6" target="4" edge="1">
                    <mxGeometry width="50" height="50" relative="1" as="geometry">
                        <mxPoint x="200" y="350" as="sourcePoint"/>
                        <mxPoint x="250" y="300" as="targetPoint"/>
                    </mxGeometry>
                </mxCell>
                <mxCell id="108" style="edgeStyle=orthogonalEdgeStyle;rounded=0;orthogonalLoop=1;jettySize=auto;html=1;exitX=0.5;exitY=1;exitDx=0;exitDy=0;entryX=0.5;entryY=0;entryDx=0;entryDy=0;" parent="1" source="6" target="107" edge="1">
                    <mxGeometry relative="1" as="geometry">
                        <Array as="points">
                            <mxPoint x="260" y="360"/>
                            <mxPoint x="165" y="360"/>
                        </Array>
                    </mxGeometry>
                </mxCell>
                <mxCell id="6" value="路由" style="ellipse;whiteSpace=wrap;html=1;aspect=fixed;" parent="1" vertex="1">
                    <mxGeometry x="220" y="270" width="80" height="80" as="geometry"/>
                </mxCell>
                <mxCell id="7" value="" style="endArrow=none;html=1;" parent="1" source="3" target="6" edge="1">
                    <mxGeometry width="50" height="50" relative="1" as="geometry">
                        <mxPoint x="160.0000000000001" y="310" as="sourcePoint"/>
                        <mxPoint x="360" y="310" as="targetPoint"/>
                    </mxGeometry>
                </mxCell>
                <mxCell id="8" value="台式机&lt;br&gt;有好显卡，玩游戏的那种" style="rounded=0;whiteSpace=wrap;html=1;" parent="1" vertex="1">
                    <mxGeometry x="40" y="110" width="120" height="60" as="geometry"/>
                </mxCell>
                <mxCell id="9" value="工作用，台式机" style="rounded=0;whiteSpace=wrap;html=1;" parent="1" vertex="1">
                    <mxGeometry x="170" y="110" width="120" height="60" as="geometry"/>
                </mxCell>
                <mxCell id="10" value="手机/智能手机" style="rounded=0;whiteSpace=wrap;html=1;" parent="1" vertex="1">
                    <mxGeometry x="300" y="110" width="120" height="60" as="geometry"/>
                </mxCell>
                <mxCell id="11" value="服务器" style="rounded=0;whiteSpace=wrap;html=1;" parent="1" vertex="1">
                    <mxGeometry x="430" y="110" width="120" height="60" as="geometry"/>
                </mxCell>
                <mxCell id="14" value="机房" style="text;html=1;align=center;verticalAlign=middle;resizable=0;points=[];autosize=1;" parent="1" vertex="1">
                    <mxGeometry x="430" y="170" width="40" height="20" as="geometry"/>
                </mxCell>
                <mxCell id="15" value="机柜" style="text;html=1;align=center;verticalAlign=middle;resizable=0;points=[];autosize=1;" parent="1" vertex="1">
                    <mxGeometry x="470" y="180" width="40" height="20" as="geometry"/>
                </mxCell>
                <mxCell id="16" value="服务器" style="text;html=1;align=center;verticalAlign=middle;resizable=0;points=[];autosize=1;" parent="1" vertex="1">
                    <mxGeometry x="500" y="200" width="50" height="20" as="geometry"/>
                </mxCell>
                <mxCell id="17" value="" style="endArrow=none;dashed=1;html=1;dashPattern=1 3;strokeWidth=2;exitX=1;exitY=0.5;exitDx=0;exitDy=0;" parent="1" source="11" edge="1">
                    <mxGeometry width="50" height="50" relative="1" as="geometry">
                        <mxPoint x="570" y="180" as="sourcePoint"/>
                        <mxPoint x="600" y="140" as="targetPoint"/>
                    </mxGeometry>
                </mxCell>
                <mxCell id="77" style="edgeStyle=orthogonalEdgeStyle;rounded=0;orthogonalLoop=1;jettySize=auto;html=1;entryX=0.001;entryY=0.524;entryDx=0;entryDy=0;entryPerimeter=0;" parent="1" source="18" target="43" edge="1">
                    <mxGeometry relative="1" as="geometry">
                        <Array as="points">
                            <mxPoint x="2600" y="600"/>
                            <mxPoint x="2600" y="201"/>
                        </Array>
                    </mxGeometry>
                </mxCell>
                <mxCell id="18" value="云服务" style="ellipse;shape=cloud;whiteSpace=wrap;html=1;" parent="1" vertex="1">
                    <mxGeometry x="2110" y="560" width="120" height="80" as="geometry"/>
                </mxCell>
                <mxCell id="19" value="" style="rounded=0;whiteSpace=wrap;html=1;" parent="1" vertex="1">
                    <mxGeometry x="880" y="50" width="430" height="290" as="geometry"/>
                </mxCell>
                <mxCell id="20" value="1：顾硕&lt;br&gt;网站" style="rounded=0;whiteSpace=wrap;html=1;" parent="1" vertex="1">
                    <mxGeometry x="900" y="60" width="60" height="30" as="geometry"/>
                </mxCell>
                <mxCell id="21" value="2" style="rounded=0;whiteSpace=wrap;html=1;fillColor=#dae8fc;strokeColor=#6c8ebf;" parent="1" vertex="1">
                    <mxGeometry x="1040" y="60" width="120" height="60" as="geometry"/>
                </mxCell>
                <mxCell id="22" value="3" style="rounded=0;whiteSpace=wrap;html=1;fillColor=#dae8fc;strokeColor=#6c8ebf;" parent="1" vertex="1">
                    <mxGeometry x="900" y="130" width="120" height="60" as="geometry"/>
                </mxCell>
                <mxCell id="23" value="4：王婷&lt;br&gt;测试" style="rounded=0;whiteSpace=wrap;html=1;" parent="1" vertex="1">
                    <mxGeometry x="1040" y="130" width="60" height="30" as="geometry"/>
                </mxCell>
                <mxCell id="24" value="5" style="rounded=0;whiteSpace=wrap;html=1;fillColor=#dae8fc;strokeColor=#6c8ebf;" parent="1" vertex="1">
                    <mxGeometry x="900" y="200" width="120" height="60" as="geometry"/>
                </mxCell>
                <mxCell id="25" value="6" style="rounded=0;whiteSpace=wrap;html=1;fillColor=#dae8fc;strokeColor=#6c8ebf;" parent="1" vertex="1">
                    <mxGeometry x="1040" y="200" width="120" height="60" as="geometry"/>
                </mxCell>
                <mxCell id="27" value="8" style="rounded=0;whiteSpace=wrap;html=1;" parent="1" vertex="1">
                    <mxGeometry x="1040" y="270" width="120" height="60" as="geometry"/>
                </mxCell>
                <mxCell id="28" value="机房" style="text;html=1;strokeColor=none;fillColor=none;align=center;verticalAlign=middle;whiteSpace=wrap;rounded=0;" parent="1" vertex="1">
                    <mxGeometry x="1260" y="60" width="40" height="20" as="geometry"/>
                </mxCell>
                <mxCell id="29" value="" style="shape=flexArrow;endArrow=classic;html=1;" parent="1" edge="1">
                    <mxGeometry width="50" height="50" relative="1" as="geometry">
                        <mxPoint x="960" y="490" as="sourcePoint"/>
                        <mxPoint x="960" y="340" as="targetPoint"/>
                    </mxGeometry>
                </mxCell>
                <mxCell id="30" value="网络" style="edgeLabel;html=1;align=center;verticalAlign=middle;resizable=0;points=[];" parent="29" vertex="1" connectable="0">
                    <mxGeometry x="-0.2978" y="2" relative="1" as="geometry">
                        <mxPoint x="2" y="-27.5" as="offset"/>
                    </mxGeometry>
                </mxCell>
                <mxCell id="31" value="" style="shape=flexArrow;endArrow=classic;html=1;exitX=0.377;exitY=1.008;exitDx=0;exitDy=0;exitPerimeter=0;" parent="1" source="19" edge="1">
                    <mxGeometry width="50" height="50" relative="1" as="geometry">
                        <mxPoint x="1040" y="400" as="sourcePoint"/>
                        <mxPoint x="1042" y="490" as="targetPoint"/>
                    </mxGeometry>
                </mxCell>
                <mxCell id="26" value="7：刘洋&lt;br&gt;搜索引擎" style="rounded=0;whiteSpace=wrap;html=1;" parent="1" vertex="1">
                    <mxGeometry x="900" y="270" width="190" height="60" as="geometry"/>
                </mxCell>
                <mxCell id="32" value="传统机房，租用服务器浪费的问题" style="text;html=1;align=center;verticalAlign=middle;resizable=0;points=[];autosize=1;" parent="1" vertex="1">
                    <mxGeometry x="1110" y="350" width="200" height="20" as="geometry"/>
                </mxCell>
                <mxCell id="33" value="1. 一台机器上，没有利用cpu100%，闲置时间较长" style="text;html=1;align=center;verticalAlign=middle;resizable=0;points=[];autosize=1;" parent="1" vertex="1">
                    <mxGeometry x="1120" y="380" width="280" height="20" as="geometry"/>
                </mxCell>
                <mxCell id="34" value="2. 多台电脑资源配置问题" style="text;html=1;align=center;verticalAlign=middle;resizable=0;points=[];autosize=1;" parent="1" vertex="1">
                    <mxGeometry x="1120" y="410" width="150" height="20" as="geometry"/>
                </mxCell>
                <mxCell id="35" value="3. 电费问题" style="text;html=1;align=center;verticalAlign=middle;resizable=0;points=[];autosize=1;" parent="1" vertex="1">
                    <mxGeometry x="1120" y="440" width="80" height="20" as="geometry"/>
                </mxCell>
                <mxCell id="38" style="edgeStyle=orthogonalEdgeStyle;rounded=0;orthogonalLoop=1;jettySize=auto;html=1;entryX=0.003;entryY=0.348;entryDx=0;entryDy=0;entryPerimeter=0;" parent="1" source="36" target="37" edge="1">
                    <mxGeometry relative="1" as="geometry"/>
                </mxCell>
                <mxCell id="40" style="edgeStyle=orthogonalEdgeStyle;rounded=0;orthogonalLoop=1;jettySize=auto;html=1;entryX=0;entryY=0.5;entryDx=0;entryDy=0;" parent="1" source="36" target="39" edge="1">
                    <mxGeometry relative="1" as="geometry"/>
                </mxCell>
                <mxCell id="42" style="edgeStyle=orthogonalEdgeStyle;rounded=0;orthogonalLoop=1;jettySize=auto;html=1;entryX=0;entryY=0.5;entryDx=0;entryDy=0;" parent="1" source="36" target="41" edge="1">
                    <mxGeometry relative="1" as="geometry"/>
                </mxCell>
                <mxCell id="36" value="传统购买服务器的途径" style="text;html=1;align=center;verticalAlign=middle;resizable=0;points=[];autosize=1;" parent="1" vertex="1">
                    <mxGeometry x="880" y="560" width="140" height="20" as="geometry"/>
                </mxCell>
                <mxCell id="37" value="自建&lt;br&gt;&lt;br&gt;自己买服务器&lt;br&gt;自己拉光纤&lt;br&gt;自己组网&lt;br&gt;自己维护/运维&lt;br&gt;场地费用/租房，买房，空调的费用，基础设施的费用" style="rounded=0;whiteSpace=wrap;html=1;" parent="1" vertex="1">
                    <mxGeometry x="1115" y="480" width="330" height="120" as="geometry"/>
                </mxCell>
                <mxCell id="39" value="租&lt;br&gt;1. 租一台别人的&lt;br&gt;2. 自己的服务器，租人家的机柜&lt;br&gt;&lt;br&gt;网络问题" style="rounded=0;whiteSpace=wrap;html=1;" parent="1" vertex="1">
                    <mxGeometry x="1115" y="610" width="335" height="90" as="geometry"/>
                </mxCell>
                <mxCell id="41" value="合租&lt;br&gt;&lt;br&gt;我只租一个“服务”/“程序”" style="rounded=0;whiteSpace=wrap;html=1;" parent="1" vertex="1">
                    <mxGeometry x="1115" y="720" width="335" height="80" as="geometry"/>
                </mxCell>
                <mxCell id="43" value="&lt;div class=&quot;para&quot; style=&quot;font-size: 14px ; overflow-wrap: break-word ; color: rgb(51 , 51 , 51) ; margin-bottom: 15px ; text-indent: 2em ; line-height: 24px ; zoom: 1 ; font-family: &amp;quot;arial&amp;quot; , , sans-serif ; background-color: rgb(255 , 255 , 255)&quot;&gt;&lt;span style=&quot;font-weight: 700&quot;&gt;IaaS：基础设施即服务&lt;/span&gt;&lt;/div&gt;&lt;div class=&quot;para&quot; style=&quot;font-size: 14px ; overflow-wrap: break-word ; color: rgb(51 , 51 , 51) ; margin-bottom: 15px ; text-indent: 2em ; line-height: 24px ; zoom: 1 ; font-family: &amp;quot;arial&amp;quot; , , sans-serif ; background-color: rgb(255 , 255 , 255)&quot;&gt;&lt;a target=&quot;_blank&quot; href=&quot;https://baike.baidu.com/item/IaaS&quot; style=&quot;color: rgb(19 , 110 , 194)&quot;&gt;IaaS&lt;/a&gt;(&lt;i&gt;Infrastructure-as-a- Service&lt;/i&gt;)：基础设施即服务。消费者通过&lt;i&gt;Internet&lt;/i&gt;可以从完善的计算机基础设施获得服务。&lt;/div&gt;&lt;div class=&quot;para&quot; style=&quot;font-size: 14px ; overflow-wrap: break-word ; color: rgb(51 , 51 , 51) ; margin-bottom: 15px ; text-indent: 2em ; line-height: 24px ; zoom: 1 ; font-family: &amp;quot;arial&amp;quot; , , sans-serif ; background-color: rgb(255 , 255 , 255)&quot;&gt;&lt;span style=&quot;font-weight: 700&quot;&gt;SaaS：软件即服务&lt;/span&gt;&lt;/div&gt;&lt;div class=&quot;para&quot; style=&quot;font-size: 14px ; overflow-wrap: break-word ; color: rgb(51 , 51 , 51) ; margin-bottom: 15px ; text-indent: 2em ; line-height: 24px ; zoom: 1 ; font-family: &amp;quot;arial&amp;quot; , , sans-serif ; background-color: rgb(255 , 255 , 255)&quot;&gt;&lt;a target=&quot;_blank&quot; href=&quot;https://baike.baidu.com/item/SaaS&quot; style=&quot;color: rgb(19 , 110 , 194)&quot;&gt;SaaS&lt;/a&gt;(&lt;i&gt;Software-as-a- Service&lt;/i&gt;)：&lt;a target=&quot;_blank&quot; href=&quot;https://baike.baidu.com/item/%E8%BD%AF%E4%BB%B6%E5%8D%B3%E6%9C%8D%E5%8A%A1&quot; style=&quot;color: rgb(19 , 110 , 194)&quot;&gt;软件即服务&lt;/a&gt;。它是一种通过&lt;i&gt;Internet&lt;/i&gt;提供软件的模式，用户无需购买软件，而是向提供商租用基于&lt;i&gt;Web&lt;/i&gt;的软件，来管理企业经营活动。&lt;/div&gt;&lt;div class=&quot;para&quot; style=&quot;font-size: 14px ; overflow-wrap: break-word ; color: rgb(51 , 51 , 51) ; margin-bottom: 15px ; text-indent: 2em ; line-height: 24px ; zoom: 1 ; font-family: &amp;quot;arial&amp;quot; , , sans-serif ; background-color: rgb(255 , 255 , 255)&quot;&gt;&lt;span style=&quot;font-weight: 700&quot;&gt;PaaS：平台即服务&lt;/span&gt;&lt;/div&gt;&lt;div class=&quot;para&quot; style=&quot;font-size: 14px ; overflow-wrap: break-word ; color: rgb(51 , 51 , 51) ; margin-bottom: 15px ; text-indent: 2em ; line-height: 24px ; zoom: 1 ; font-family: &amp;quot;arial&amp;quot; , , sans-serif ; background-color: rgb(255 , 255 , 255)&quot;&gt;&lt;a target=&quot;_blank&quot; href=&quot;https://baike.baidu.com/item/PaaS&quot; style=&quot;color: rgb(19 , 110 , 194)&quot;&gt;PaaS&lt;/a&gt;(&lt;i&gt;Platform-as-a- Service&lt;/i&gt;)：&lt;a target=&quot;_blank&quot; href=&quot;https://baike.baidu.com/item/%E5%B9%B3%E5%8F%B0%E5%8D%B3%E6%9C%8D%E5%8A%A1&quot; style=&quot;color: rgb(19 , 110 , 194)&quot;&gt;平台即服务&lt;/a&gt;。&lt;i&gt;PaaS&lt;/i&gt;实际上是指将软件研发的平台作为一种服务，以&lt;i&gt;SaaS&lt;/i&gt;的模式提交给用户。因此，&lt;i&gt;PaaS&lt;/i&gt;也是&lt;i&gt;SaaS&lt;/i&gt;模式的一种应用。但是，&lt;i&gt;PaaS&lt;/i&gt;的出现可以加快&lt;i&gt;SaaS&lt;/i&gt;的发展，尤其是加快&lt;i&gt;SaaS&lt;/i&gt;应用的开发速度。&lt;/div&gt;" style="text;html=1;align=left;verticalAlign=middle;resizable=0;points=[];autosize=1;strokeColor=#000000;" parent="1" vertex="1">
                    <mxGeometry x="2710" y="75" width="1540" height="240" as="geometry"/>
                </mxCell>
                <mxCell id="44" value="大型机" style="rounded=1;whiteSpace=wrap;html=1;" parent="1" vertex="1">
                    <mxGeometry x="1800" y="40" width="120" height="60" as="geometry"/>
                </mxCell>
                <mxCell id="45" value="历史角度" style="text;html=1;strokeColor=none;fillColor=none;align=center;verticalAlign=middle;whiteSpace=wrap;rounded=0;" parent="1" vertex="1">
                    <mxGeometry x="1680" y="10" width="80" height="20" as="geometry"/>
                </mxCell>
                <mxCell id="50" style="edgeStyle=orthogonalEdgeStyle;rounded=0;orthogonalLoop=1;jettySize=auto;html=1;" parent="1" source="46" target="44" edge="1">
                    <mxGeometry relative="1" as="geometry"/>
                </mxCell>
                <mxCell id="46" value="" style="ellipse;whiteSpace=wrap;html=1;aspect=fixed;" parent="1" vertex="1">
                    <mxGeometry x="1720" y="140" width="80" height="80" as="geometry"/>
                </mxCell>
                <mxCell id="51" style="edgeStyle=orthogonalEdgeStyle;rounded=0;orthogonalLoop=1;jettySize=auto;html=1;entryX=0.5;entryY=1;entryDx=0;entryDy=0;" parent="1" source="47" target="44" edge="1">
                    <mxGeometry relative="1" as="geometry"/>
                </mxCell>
                <mxCell id="47" value="" style="ellipse;whiteSpace=wrap;html=1;aspect=fixed;" parent="1" vertex="1">
                    <mxGeometry x="1840" y="140" width="80" height="80" as="geometry"/>
                </mxCell>
                <mxCell id="52" style="edgeStyle=orthogonalEdgeStyle;rounded=0;orthogonalLoop=1;jettySize=auto;html=1;" parent="1" source="48" edge="1">
                    <mxGeometry relative="1" as="geometry">
                        <mxPoint x="1860" y="100" as="targetPoint"/>
                        <Array as="points">
                            <mxPoint x="2000" y="120"/>
                            <mxPoint x="1860" y="120"/>
                        </Array>
                    </mxGeometry>
                </mxCell>
                <mxCell id="48" value="" style="ellipse;whiteSpace=wrap;html=1;aspect=fixed;" parent="1" vertex="1">
                    <mxGeometry x="1960" y="140" width="80" height="80" as="geometry"/>
                </mxCell>
                <mxCell id="53" style="edgeStyle=orthogonalEdgeStyle;rounded=0;orthogonalLoop=1;jettySize=auto;html=1;entryX=0.5;entryY=1;entryDx=0;entryDy=0;" parent="1" source="49" target="44" edge="1">
                    <mxGeometry relative="1" as="geometry">
                        <Array as="points">
                            <mxPoint x="2108" y="120"/>
                            <mxPoint x="1860" y="120"/>
                        </Array>
                    </mxGeometry>
                </mxCell>
                <mxCell id="49" value="" style="ellipse;whiteSpace=wrap;html=1;aspect=fixed;" parent="1" vertex="1">
                    <mxGeometry x="2068" y="140" width="80" height="80" as="geometry"/>
                </mxCell>
                <mxCell id="54" value="" style="endArrow=none;html=1;" parent="1" edge="1">
                    <mxGeometry width="50" height="50" relative="1" as="geometry">
                        <mxPoint x="1720" y="280" as="sourcePoint"/>
                        <mxPoint x="2210" y="280" as="targetPoint"/>
                    </mxGeometry>
                </mxCell>
                <mxCell id="56" value="家用机器" style="rounded=1;whiteSpace=wrap;html=1;" parent="1" vertex="1">
                    <mxGeometry x="1800" y="290" width="120" height="60" as="geometry"/>
                </mxCell>
                <mxCell id="58" style="edgeStyle=orthogonalEdgeStyle;rounded=0;orthogonalLoop=1;jettySize=auto;html=1;" parent="1" source="57" target="56" edge="1">
                    <mxGeometry relative="1" as="geometry"/>
                </mxCell>
                <mxCell id="57" value="普通用户" style="ellipse;whiteSpace=wrap;html=1;aspect=fixed;" parent="1" vertex="1">
                    <mxGeometry x="1930" y="490" width="80" height="80" as="geometry"/>
                </mxCell>
                <mxCell id="59" value="" style="shape=flexArrow;endArrow=classic;html=1;" parent="1" edge="1">
                    <mxGeometry width="50" height="50" relative="1" as="geometry">
                        <mxPoint x="1990" y="230" as="sourcePoint"/>
                        <mxPoint x="1990" y="340" as="targetPoint"/>
                    </mxGeometry>
                </mxCell>
                <mxCell id="60" value="操作系统成型" style="edgeLabel;html=1;align=center;verticalAlign=middle;resizable=0;points=[];" parent="59" vertex="1" connectable="0">
                    <mxGeometry x="-0.2909" y="-1" relative="1" as="geometry">
                        <mxPoint y="20.83" as="offset"/>
                    </mxGeometry>
                </mxCell>
                <mxCell id="61" value="" style="rounded=0;whiteSpace=wrap;html=1;" parent="1" vertex="1">
                    <mxGeometry x="2040" y="290" width="330" height="120" as="geometry"/>
                </mxCell>
                <mxCell id="62" value="服务器" style="rounded=1;whiteSpace=wrap;html=1;" parent="1" vertex="1">
                    <mxGeometry x="2068" y="310" width="120" height="60" as="geometry"/>
                </mxCell>
                <mxCell id="63" value="服务器" style="rounded=1;whiteSpace=wrap;html=1;" parent="1" vertex="1">
                    <mxGeometry x="2230" y="310" width="120" height="60" as="geometry"/>
                </mxCell>
                <mxCell id="64" value="多台电脑形成网络" style="text;html=1;strokeColor=none;fillColor=none;align=center;verticalAlign=middle;whiteSpace=wrap;rounded=0;" parent="1" vertex="1">
                    <mxGeometry x="2050" y="380" width="130" height="20" as="geometry"/>
                </mxCell>
                <mxCell id="65" value="" style="endArrow=none;html=1;" parent="1" edge="1">
                    <mxGeometry width="50" height="50" relative="1" as="geometry">
                        <mxPoint x="1930" y="440" as="sourcePoint"/>
                        <mxPoint x="2380" y="440" as="targetPoint"/>
                    </mxGeometry>
                </mxCell>
                <mxCell id="66" value="互联网" style="edgeLabel;html=1;align=center;verticalAlign=middle;resizable=0;points=[];" parent="65" vertex="1" connectable="0">
                    <mxGeometry x="-0.1374" relative="1" as="geometry">
                        <mxPoint as="offset"/>
                    </mxGeometry>
                </mxCell>
                <mxCell id="67" value="" style="shape=flexArrow;endArrow=classic;html=1;exitX=0.153;exitY=0.999;exitDx=0;exitDy=0;exitPerimeter=0;" parent="1" source="61" target="57" edge="1">
                    <mxGeometry width="50" height="50" relative="1" as="geometry">
                        <mxPoint x="2140" y="500" as="sourcePoint"/>
                        <mxPoint x="2190" y="450" as="targetPoint"/>
                    </mxGeometry>
                </mxCell>
                <mxCell id="69" style="edgeStyle=orthogonalEdgeStyle;rounded=0;orthogonalLoop=1;jettySize=auto;html=1;" parent="1" source="68" target="61" edge="1">
                    <mxGeometry relative="1" as="geometry"/>
                </mxCell>
                <mxCell id="70" value="开发写程序" style="edgeStyle=orthogonalEdgeStyle;rounded=0;orthogonalLoop=1;jettySize=auto;html=1;entryX=1;entryY=0.5;entryDx=0;entryDy=0;" parent="1" source="68" target="56" edge="1">
                    <mxGeometry x="-0.2679" relative="1" as="geometry">
                        <Array as="points">
                            <mxPoint x="2095" y="530"/>
                            <mxPoint x="2095" y="470"/>
                            <mxPoint x="1960" y="470"/>
                            <mxPoint x="1960" y="320"/>
                        </Array>
                        <mxPoint as="offset"/>
                    </mxGeometry>
                </mxCell>
                <mxCell id="68" value="运维啊&lt;br&gt;&lt;br&gt;程序员" style="ellipse;whiteSpace=wrap;html=1;aspect=fixed;" parent="1" vertex="1">
                    <mxGeometry x="2270" y="490" width="80" height="80" as="geometry"/>
                </mxCell>
                <mxCell id="71" value="" style="endArrow=none;html=1;" parent="1" edge="1">
                    <mxGeometry width="50" height="50" relative="1" as="geometry">
                        <mxPoint x="1748" y="670" as="sourcePoint"/>
                        <mxPoint x="2388" y="670" as="targetPoint"/>
                    </mxGeometry>
                </mxCell>
                <mxCell id="72" value="移动互联网" style="edgeLabel;html=1;align=center;verticalAlign=middle;resizable=0;points=[];" parent="71" vertex="1" connectable="0">
                    <mxGeometry x="-0.2875" y="-2" relative="1" as="geometry">
                        <mxPoint as="offset"/>
                    </mxGeometry>
                </mxCell>
                <mxCell id="73" value="智能手机" style="rounded=1;whiteSpace=wrap;html=1;" parent="1" vertex="1">
                    <mxGeometry x="1770" y="570" width="120" height="60" as="geometry"/>
                </mxCell>
                <mxCell id="75" style="edgeStyle=orthogonalEdgeStyle;rounded=0;orthogonalLoop=1;jettySize=auto;html=1;" parent="1" source="74" target="73" edge="1">
                    <mxGeometry relative="1" as="geometry"/>
                </mxCell>
                <mxCell id="76" style="edgeStyle=orthogonalEdgeStyle;rounded=0;orthogonalLoop=1;jettySize=auto;html=1;" parent="1" source="74" target="18" edge="1">
                    <mxGeometry relative="1" as="geometry"/>
                </mxCell>
                <mxCell id="74" value="普通用户&lt;br&gt;&lt;br&gt;可能都没用过台式机" style="ellipse;whiteSpace=wrap;html=1;aspect=fixed;" parent="1" vertex="1">
                    <mxGeometry x="1850" y="750" width="80" height="80" as="geometry"/>
                </mxCell>
                <mxCell id="81" value="很多docker组织在一起" style="edgeStyle=orthogonalEdgeStyle;rounded=0;orthogonalLoop=1;jettySize=auto;html=1;" parent="1" source="78" target="80" edge="1">
                    <mxGeometry relative="1" as="geometry"/>
                </mxCell>
                <mxCell id="78" value="docker" style="rounded=1;whiteSpace=wrap;html=1;strokeColor=#000000;align=center;" parent="1" vertex="1">
                    <mxGeometry x="2740" y="350" width="120" height="60" as="geometry"/>
                </mxCell>
                <mxCell id="80" value="k8s" style="rounded=1;whiteSpace=wrap;html=1;strokeColor=#000000;align=center;" parent="1" vertex="1">
                    <mxGeometry x="2980" y="440" width="120" height="60" as="geometry"/>
                </mxCell>
                <mxCell id="82" value="局域网" style="text;html=1;align=center;verticalAlign=middle;resizable=0;points=[];autosize=1;" parent="1" vertex="1">
                    <mxGeometry x="460" y="250" width="50" height="20" as="geometry"/>
                </mxCell>
                <mxCell id="83" value="我爹电脑" style="rounded=0;whiteSpace=wrap;html=1;strokeColor=#000000;align=center;" parent="1" vertex="1">
                    <mxGeometry x="360" y="360" width="120" height="60" as="geometry"/>
                </mxCell>
                <mxCell id="85" value="" style="endArrow=none;html=1;entryX=0;entryY=0.5;entryDx=0;entryDy=0;exitX=1;exitY=1;exitDx=0;exitDy=0;" parent="1" source="6" target="83" edge="1">
                    <mxGeometry width="50" height="50" relative="1" as="geometry">
                        <mxPoint x="240" y="410" as="sourcePoint"/>
                        <mxPoint x="290" y="360" as="targetPoint"/>
                    </mxGeometry>
                </mxCell>
                <mxCell id="87" value="在一定范围内，一间房子，一个小区" style="text;html=1;strokeColor=none;fillColor=none;align=center;verticalAlign=middle;whiteSpace=wrap;rounded=0;" parent="1" vertex="1">
                    <mxGeometry x="40" y="480" width="230" height="20" as="geometry"/>
                </mxCell>
                <mxCell id="88" value="" style="rounded=1;whiteSpace=wrap;html=1;strokeColor=#000000;align=center;" parent="1" vertex="1">
                    <mxGeometry y="560" width="510" height="280" as="geometry"/>
                </mxCell>
                <mxCell id="89" value="我的电脑" style="rounded=0;whiteSpace=wrap;html=1;" parent="1" vertex="1">
                    <mxGeometry x="30" y="610" width="120" height="60" as="geometry"/>
                </mxCell>
                <mxCell id="90" value="我的手机" style="rounded=0;whiteSpace=wrap;html=1;" parent="1" vertex="1">
                    <mxGeometry x="350" y="610" width="120" height="60" as="geometry"/>
                </mxCell>
                <mxCell id="91" value="" style="endArrow=none;html=1;" parent="1" source="92" target="90" edge="1">
                    <mxGeometry width="50" height="50" relative="1" as="geometry">
                        <mxPoint x="190" y="680" as="sourcePoint"/>
                        <mxPoint x="240" y="630" as="targetPoint"/>
                    </mxGeometry>
                </mxCell>
                <mxCell id="92" value="路由" style="ellipse;whiteSpace=wrap;html=1;aspect=fixed;" parent="1" vertex="1">
                    <mxGeometry x="210" y="600" width="80" height="80" as="geometry"/>
                </mxCell>
                <mxCell id="93" value="" style="endArrow=none;html=1;" parent="1" source="89" target="92" edge="1">
                    <mxGeometry width="50" height="50" relative="1" as="geometry">
                        <mxPoint x="150.0000000000001" y="640" as="sourcePoint"/>
                        <mxPoint x="350" y="640" as="targetPoint"/>
                    </mxGeometry>
                </mxCell>
                <mxCell id="94" value="局域网" style="text;html=1;align=center;verticalAlign=middle;resizable=0;points=[];autosize=1;" parent="1" vertex="1">
                    <mxGeometry x="450" y="580" width="50" height="20" as="geometry"/>
                </mxCell>
                <mxCell id="95" value="我爹电脑" style="rounded=0;whiteSpace=wrap;html=1;strokeColor=#000000;align=center;" parent="1" vertex="1">
                    <mxGeometry x="350" y="690" width="120" height="60" as="geometry"/>
                </mxCell>
                <mxCell id="96" value="" style="endArrow=none;html=1;entryX=0;entryY=0.5;entryDx=0;entryDy=0;exitX=1;exitY=1;exitDx=0;exitDy=0;" parent="1" source="92" target="95" edge="1">
                    <mxGeometry width="50" height="50" relative="1" as="geometry">
                        <mxPoint x="230" y="740" as="sourcePoint"/>
                        <mxPoint x="280" y="690" as="targetPoint"/>
                    </mxGeometry>
                </mxCell>
                <mxCell id="97" value="在一定范围内，一间房子，一个小区" style="text;html=1;strokeColor=none;fillColor=none;align=center;verticalAlign=middle;whiteSpace=wrap;rounded=0;" parent="1" vertex="1">
                    <mxGeometry x="30" y="810" width="230" height="20" as="geometry"/>
                </mxCell>
                <mxCell id="98" value="路由" style="ellipse;whiteSpace=wrap;html=1;aspect=fixed;strokeColor=#000000;align=center;" parent="1" vertex="1">
                    <mxGeometry x="610" y="450" width="80" height="80" as="geometry"/>
                </mxCell>
                <mxCell id="99" value="" style="endArrow=none;html=1;exitX=1.001;exitY=0.621;exitDx=0;exitDy=0;exitPerimeter=0;entryX=0.5;entryY=0;entryDx=0;entryDy=0;" parent="1" source="86" target="98" edge="1">
                    <mxGeometry width="50" height="50" relative="1" as="geometry">
                        <mxPoint x="530" y="440" as="sourcePoint"/>
                        <mxPoint x="580" y="390" as="targetPoint"/>
                    </mxGeometry>
                </mxCell>
                <mxCell id="100" value="" style="endArrow=none;html=1;entryX=0.5;entryY=1;entryDx=0;entryDy=0;" parent="1" source="88" target="98" edge="1">
                    <mxGeometry width="50" height="50" relative="1" as="geometry">
                        <mxPoint x="540" y="720" as="sourcePoint"/>
                        <mxPoint x="590" y="670" as="targetPoint"/>
                    </mxGeometry>
                </mxCell>
                <mxCell id="102" value="最大的那个“路由”" style="ellipse;whiteSpace=wrap;html=1;aspect=fixed;strokeColor=#000000;align=center;" parent="1" vertex="1">
                    <mxGeometry x="274" y="970" width="140" height="140" as="geometry"/>
                </mxCell>
                <mxCell id="103" value="" style="endArrow=none;html=1;" parent="1" source="102" target="101" edge="1">
                    <mxGeometry width="50" height="50" relative="1" as="geometry">
                        <mxPoint x="660" y="670" as="sourcePoint"/>
                        <mxPoint x="710" y="620" as="targetPoint"/>
                    </mxGeometry>
                </mxCell>
                <mxCell id="104" value="" style="shape=note;whiteSpace=wrap;html=1;backgroundOutline=1;darkOpacity=0.05;strokeColor=#000000;align=center;size=10;" parent="1" vertex="1">
                    <mxGeometry x="75" y="350" width="30" height="40" as="geometry"/>
                </mxCell>
                <mxCell id="106" value="" style="endArrow=none;dashed=1;html=1;dashPattern=1 3;strokeWidth=2;" parent="1" source="104" target="83" edge="1">
                    <mxGeometry width="50" height="50" relative="1" as="geometry">
                        <mxPoint x="90" y="420" as="sourcePoint"/>
                        <mxPoint x="140" y="370" as="targetPoint"/>
                    </mxGeometry>
                </mxCell>
                <mxCell id="107" value="tcp/ip" style="shape=process;whiteSpace=wrap;html=1;backgroundOutline=1;strokeColor=#000000;align=center;" parent="1" vertex="1">
                    <mxGeometry x="105" y="410" width="120" height="60" as="geometry"/>
                </mxCell>
                <mxCell id="112" style="edgeStyle=orthogonalEdgeStyle;rounded=0;orthogonalLoop=1;jettySize=auto;html=1;entryX=0;entryY=0.5;entryDx=0;entryDy=0;" parent="1" source="109" target="110" edge="1">
                    <mxGeometry relative="1" as="geometry"/>
                </mxCell>
                <mxCell id="113" style="edgeStyle=orthogonalEdgeStyle;rounded=0;orthogonalLoop=1;jettySize=auto;html=1;" parent="1" source="109" target="111" edge="1">
                    <mxGeometry relative="1" as="geometry"/>
                </mxCell>
                <mxCell id="109" value="tcp/ip" style="rounded=0;whiteSpace=wrap;html=1;strokeColor=#000000;align=center;" parent="1" vertex="1">
                    <mxGeometry x="10" y="1300" width="120" height="60" as="geometry"/>
                </mxCell>
                <mxCell id="110" value="tcp&lt;br&gt;udp" style="ellipse;whiteSpace=wrap;html=1;aspect=fixed;strokeColor=#000000;align=center;" parent="1" vertex="1">
                    <mxGeometry x="210" y="1210" width="80" height="80" as="geometry"/>
                </mxCell>
                <mxCell id="111" value="ip" style="ellipse;whiteSpace=wrap;html=1;aspect=fixed;strokeColor=#000000;align=center;" parent="1" vertex="1">
                    <mxGeometry x="210" y="1350" width="80" height="80" as="geometry"/>
                </mxCell>
                <mxCell id="114" value="https://developer.51cto.com/art/201906/597961.htm" style="text;html=1;align=center;verticalAlign=middle;resizable=0;points=[];autosize=1;" parent="1" vertex="1">
                    <mxGeometry x="-130" y="1270" width="290" height="20" as="geometry"/>
                </mxCell>
                <mxCell id="115" value="https://juejin.cn/post/6844903798620553229" style="text;html=1;align=center;verticalAlign=middle;resizable=0;points=[];autosize=1;" parent="1" vertex="1">
                    <mxGeometry x="125" y="1440" width="250" height="20" as="geometry"/>
                </mxCell>
                <mxCell id="116" value="后端 或者 传统web开发" style="rounded=0;whiteSpace=wrap;html=1;strokeColor=#000000;align=center;" parent="1" vertex="1">
                    <mxGeometry x="5" y="1520" width="805" height="60" as="geometry"/>
                </mxCell>
                <mxCell id="117" value="" style="shape=flexArrow;endArrow=classic;html=1;" parent="1" edge="1">
                    <mxGeometry width="50" height="50" relative="1" as="geometry">
                        <mxPoint x="610" y="1300" as="sourcePoint"/>
                        <mxPoint x="610" y="2090" as="targetPoint"/>
                    </mxGeometry>
                </mxCell>
                <mxCell id="135" value="网咯&lt;br&gt;&lt;br&gt;跟高速公路一样" style="edgeLabel;html=1;align=center;verticalAlign=middle;resizable=0;points=[];" parent="117" vertex="1" connectable="0">
                    <mxGeometry x="-0.6165" y="7" relative="1" as="geometry">
                        <mxPoint as="offset"/>
                    </mxGeometry>
                </mxCell>
                <mxCell id="118" value="www.baidu.com" style="text;html=1;align=center;verticalAlign=middle;resizable=0;points=[];autosize=1;" parent="1" vertex="1">
                    <mxGeometry x="5" y="1610" width="100" height="20" as="geometry"/>
                </mxCell>
                <mxCell id="120" value="浏览器" style="ellipse;whiteSpace=wrap;html=1;aspect=fixed;strokeColor=#000000;align=center;" parent="1" vertex="1">
                    <mxGeometry x="125" y="1610" width="80" height="80" as="geometry"/>
                </mxCell>
                <mxCell id="121" value="域名" style="shape=trapezoid;perimeter=trapezoidPerimeter;whiteSpace=wrap;html=1;fixedSize=1;strokeColor=#000000;align=center;" parent="1" vertex="1">
                    <mxGeometry x="340" y="1620" width="120" height="60" as="geometry"/>
                </mxCell>
                <mxCell id="122" value="协议&lt;br&gt;&lt;br&gt;http" style="shape=parallelogram;perimeter=parallelogramPerimeter;whiteSpace=wrap;html=1;fixedSize=1;strokeColor=#000000;align=center;" parent="1" vertex="1">
                    <mxGeometry x="210" y="1620" width="120" height="60" as="geometry"/>
                </mxCell>
                <mxCell id="123" value="" style="endArrow=classic;startArrow=classic;html=1;" parent="1" edge="1">
                    <mxGeometry width="50" height="50" relative="1" as="geometry">
                        <mxPoint x="480" y="1650" as="sourcePoint"/>
                        <mxPoint x="600" y="1650" as="targetPoint"/>
                    </mxGeometry>
                </mxCell>
                <mxCell id="124" value="https://www.baidu.com/" style="text;html=1;align=center;verticalAlign=middle;resizable=0;points=[];autosize=1;" parent="1" vertex="1">
                    <mxGeometry x="460" y="1620" width="140" height="20" as="geometry"/>
                </mxCell>
                <mxCell id="127" style="edgeStyle=orthogonalEdgeStyle;rounded=0;orthogonalLoop=1;jettySize=auto;html=1;entryX=0.5;entryY=1;entryDx=0;entryDy=0;" parent="1" source="125" target="120" edge="1">
                    <mxGeometry relative="1" as="geometry">
                        <Array as="points">
                            <mxPoint x="750" y="1710"/>
                            <mxPoint x="165" y="1710"/>
                        </Array>
                    </mxGeometry>
                </mxCell>
                <mxCell id="128" value="DNS提供真实的IP给电脑&lt;br&gt;大致意思是这样，并不是直接给浏览器" style="edgeLabel;html=1;align=center;verticalAlign=middle;resizable=0;points=[];" parent="127" vertex="1" connectable="0">
                    <mxGeometry x="-0.0871" y="-2" relative="1" as="geometry">
                        <mxPoint as="offset"/>
                    </mxGeometry>
                </mxCell>
                <mxCell id="125" value="DNS服务" style="ellipse;whiteSpace=wrap;html=1;aspect=fixed;strokeColor=#000000;align=center;" parent="1" vertex="1">
                    <mxGeometry x="710" y="1600" width="80" height="80" as="geometry"/>
                </mxCell>
                <mxCell id="129" value="" style="endArrow=classic;startArrow=classic;html=1;entryX=0;entryY=0.5;entryDx=0;entryDy=0;" parent="1" target="125" edge="1">
                    <mxGeometry width="50" height="50" relative="1" as="geometry">
                        <mxPoint x="620" y="1640" as="sourcePoint"/>
                        <mxPoint x="670" y="1620" as="targetPoint"/>
                    </mxGeometry>
                </mxCell>
                <mxCell id="130" value="域名换成ip" style="text;html=1;align=center;verticalAlign=middle;resizable=0;points=[];autosize=1;" parent="1" vertex="1">
                    <mxGeometry x="630" y="1620" width="70" height="20" as="geometry"/>
                </mxCell>
                <mxCell id="131" value="浏览器" style="ellipse;whiteSpace=wrap;html=1;aspect=fixed;strokeColor=#000000;align=center;" parent="1" vertex="1">
                    <mxGeometry x="115" y="1780" width="80" height="80" as="geometry"/>
                </mxCell>
                <mxCell id="132" value="" style="endArrow=classic;startArrow=classic;html=1;entryX=0;entryY=0.5;entryDx=0;entryDy=0;" parent="1" target="134" edge="1">
                    <mxGeometry width="50" height="50" relative="1" as="geometry">
                        <mxPoint x="200" y="1840" as="sourcePoint"/>
                        <mxPoint x="600" y="1840" as="targetPoint"/>
                    </mxGeometry>
                </mxCell>
                <mxCell id="133" value="数据走向真实的百度服务器" style="text;html=1;align=center;verticalAlign=middle;resizable=0;points=[];autosize=1;" parent="1" vertex="1">
                    <mxGeometry x="290" y="1820" width="160" height="20" as="geometry"/>
                </mxCell>
                <mxCell id="134" value="百度&lt;br&gt;&lt;br&gt;xx_server" style="ellipse;whiteSpace=wrap;html=1;aspect=fixed;strokeColor=#000000;align=center;" parent="1" vertex="1">
                    <mxGeometry x="710" y="1800" width="80" height="80" as="geometry"/>
                </mxCell>
                <mxCell id="138" value="&lt;ol&gt;&lt;li&gt;ip&lt;/li&gt;&lt;li&gt;域名&lt;/li&gt;&lt;li&gt;端口&lt;/li&gt;&lt;li&gt;用户的ip&lt;/li&gt;&lt;li&gt;用户的端口&lt;/li&gt;&lt;/ol&gt;&lt;div&gt;&lt;ul&gt;&lt;li&gt;http包的数据&lt;/li&gt;&lt;/ul&gt;&lt;/div&gt;" style="shape=document;whiteSpace=wrap;html=1;boundedLbl=1;strokeColor=#000000;align=center;size=0.15;" parent="1" vertex="1">
                    <mxGeometry x="800" y="1800" width="120" height="200" as="geometry"/>
                </mxCell>
                <mxCell id="141" value="host文件&lt;br&gt;&lt;br&gt;就是本机的dns" style="text;html=1;align=center;verticalAlign=middle;resizable=0;points=[];autosize=1;" parent="1" vertex="1">
                    <mxGeometry y="1670" width="90" height="50" as="geometry"/>
                </mxCell>
                <mxCell id="142" value="localhost&amp;nbsp; : 127.0.0.1" style="text;html=1;align=center;verticalAlign=middle;resizable=0;points=[];autosize=1;" parent="1" vertex="1">
                    <mxGeometry x="-15" y="1730" width="130" height="20" as="geometry"/>
                </mxCell>
                <mxCell id="143" value="" style="endArrow=classic;html=1;exitX=1.015;exitY=0.224;exitDx=0;exitDy=0;exitPerimeter=0;" parent="1" source="138" target="145" edge="1">
                    <mxGeometry width="50" height="50" relative="1" as="geometry">
                        <mxPoint x="950" y="1800" as="sourcePoint"/>
                        <mxPoint x="1000" y="1750" as="targetPoint"/>
                    </mxGeometry>
                </mxCell>
                <mxCell id="147" value="www.baidu.com" style="edgeLabel;html=1;align=center;verticalAlign=middle;resizable=0;points=[];" parent="143" vertex="1" connectable="0">
                    <mxGeometry x="-0.2136" y="1" relative="1" as="geometry">
                        <mxPoint x="-0.36" as="offset"/>
                    </mxGeometry>
                </mxCell>
                <mxCell id="144" value="" style="endArrow=classic;html=1;exitX=1.015;exitY=0.433;exitDx=0;exitDy=0;exitPerimeter=0;" parent="1" source="138" edge="1">
                    <mxGeometry width="50" height="50" relative="1" as="geometry">
                        <mxPoint x="950" y="1890" as="sourcePoint"/>
                        <mxPoint x="1020" y="1930" as="targetPoint"/>
                    </mxGeometry>
                </mxCell>
                <mxCell id="148" value="wap.baidu.com" style="edgeLabel;html=1;align=center;verticalAlign=middle;resizable=0;points=[];" parent="144" vertex="1" connectable="0">
                    <mxGeometry x="-0.387" y="2" relative="1" as="geometry">
                        <mxPoint x="7.670000000000002" y="2.09" as="offset"/>
                    </mxGeometry>
                </mxCell>
                <mxCell id="145" value="website 1" style="rounded=0;whiteSpace=wrap;html=1;strokeColor=#000000;align=center;" parent="1" vertex="1">
                    <mxGeometry x="1010" y="1724" width="120" height="60" as="geometry"/>
                </mxCell>
                <mxCell id="146" value="website 2" style="rounded=0;whiteSpace=wrap;html=1;strokeColor=#000000;align=center;" parent="1" vertex="1">
                    <mxGeometry x="1020" y="1900" width="120" height="60" as="geometry"/>
                </mxCell>
                <mxCell id="149" value="server" style="text;html=1;align=center;verticalAlign=middle;resizable=0;points=[];autosize=1;" parent="1" vertex="1">
                    <mxGeometry x="1241" y="1660" width="50" height="20" as="geometry"/>
                </mxCell>
                <mxCell id="150" value="service" style="text;html=1;align=center;verticalAlign=middle;resizable=0;points=[];autosize=1;" parent="1" vertex="1">
                    <mxGeometry x="1241" y="1680" width="50" height="20" as="geometry"/>
                </mxCell>
                <mxCell id="152" value="node" style="rounded=0;whiteSpace=wrap;html=1;" vertex="1" parent="1">
                    <mxGeometry x="1930" y="1570" width="80" height="40" as="geometry"/>
                </mxCell>
                <mxCell id="153" value="" style="shape=mxgraph.bpmn.loop;html=1;outlineConnect=0;" vertex="1" parent="1">
                    <mxGeometry x="1993" y="1596" width="14" height="14" as="geometry"/>
                </mxCell>
                <mxCell id="154" value="http demo js" style="html=1;dashed=0;whitespace=wrap;shape=mxgraph.dfd.loop" vertex="1" parent="1">
                    <mxGeometry x="1930" y="1625" width="80" height="30" as="geometry"/>
                </mxCell>
                <mxCell id="155" value="" style="shape=flexArrow;endArrow=classic;html=1;exitX=-0.012;exitY=0.4;exitDx=0;exitDy=0;exitPerimeter=0;" edge="1" parent="1" source="154" target="151">
                    <mxGeometry width="50" height="50" relative="1" as="geometry">
                        <mxPoint x="1950" y="1820" as="sourcePoint"/>
                        <mxPoint x="2000" y="1770" as="targetPoint"/>
                    </mxGeometry>
                </mxCell>
                <mxCell id="159" style="endArrow=none;dashed=1;html=1;dashPattern=1 3;strokeWidth=2;fontFamily=Helvetica;fontSize=11;fontColor=#000000;align=center;strokeColor=#000000;edgeStyle=orthogonalEdgeStyle;" edge="1" parent="1" source="156" target="152">
                    <mxGeometry relative="1" as="geometry"/>
                </mxCell>
                <mxCell id="156" value="node 可执行的二进制程序" style="shape=process;whiteSpace=wrap;html=1;backgroundOutline=1;" vertex="1" parent="1">
                    <mxGeometry x="1840" y="1490" width="120" height="60" as="geometry"/>
                </mxCell>
                <mxCell id="157" value="npm的管理工具" style="shape=process;whiteSpace=wrap;html=1;backgroundOutline=1;" vertex="1" parent="1">
                    <mxGeometry x="1910" y="1410" width="120" height="60" as="geometry"/>
                </mxCell>
                <mxCell id="161" style="endArrow=none;dashed=1;html=1;dashPattern=1 3;strokeWidth=2;fontFamily=Helvetica;fontSize=11;fontColor=#000000;align=center;strokeColor=#000000;edgeStyle=orthogonalEdgeStyle;" edge="1" parent="1" source="158" target="154">
                    <mxGeometry relative="1" as="geometry">
                        <Array as="points">
                            <mxPoint x="2050" y="1640"/>
                        </Array>
                    </mxGeometry>
                </mxCell>
                <mxCell id="165" style="edgeStyle=orthogonalEdgeStyle;rounded=0;orthogonalLoop=1;jettySize=auto;html=1;entryX=0;entryY=0.75;entryDx=0;entryDy=0;" edge="1" parent="1" source="158" target="162">
                    <mxGeometry relative="1" as="geometry">
                        <Array as="points">
                            <mxPoint x="2130" y="1520"/>
                            <mxPoint x="2130" y="1470"/>
                            <mxPoint x="2128" y="1470"/>
                            <mxPoint x="2128" y="1465"/>
                        </Array>
                    </mxGeometry>
                </mxCell>
                <mxCell id="166" style="edgeStyle=orthogonalEdgeStyle;rounded=0;orthogonalLoop=1;jettySize=auto;html=1;entryX=0;entryY=0.75;entryDx=0;entryDy=0;" edge="1" parent="1" source="158" target="163">
                    <mxGeometry relative="1" as="geometry"/>
                </mxCell>
                <mxCell id="167" style="edgeStyle=orthogonalEdgeStyle;rounded=0;orthogonalLoop=1;jettySize=auto;html=1;exitX=1;exitY=0.75;exitDx=0;exitDy=0;entryX=0;entryY=0.5;entryDx=0;entryDy=0;" edge="1" parent="1" source="158" target="164">
                    <mxGeometry relative="1" as="geometry"/>
                </mxCell>
                <mxCell id="175" style="endArrow=none;dashed=1;html=1;fontFamily=Helvetica;fontSize=11;fontColor=#000000;align=center;strokeColor=#000000;edgeStyle=orthogonalEdgeStyle;" edge="1" parent="1" source="158" target="173">
                    <mxGeometry relative="1" as="geometry">
                        <Array as="points">
                            <mxPoint x="2050" y="1650"/>
                            <mxPoint x="2140" y="1650"/>
                        </Array>
                    </mxGeometry>
                </mxCell>
                <mxCell id="176" style="endArrow=none;dashed=1;html=1;fontFamily=Helvetica;fontSize=11;fontColor=#000000;align=center;strokeColor=#000000;edgeStyle=orthogonalEdgeStyle;" edge="1" parent="1" source="158" target="174">
                    <mxGeometry relative="1" as="geometry">
                        <Array as="points">
                            <mxPoint x="2050" y="1650"/>
                            <mxPoint x="2770" y="1650"/>
                        </Array>
                    </mxGeometry>
                </mxCell>
                <mxCell id="158" value="基础的代码，&lt;br&gt;代码包，&lt;br&gt;SDK" style="shape=process;whiteSpace=wrap;html=1;backgroundOutline=1;" vertex="1" parent="1">
                    <mxGeometry x="1990" y="1490" width="120" height="60" as="geometry"/>
                </mxCell>
                <mxCell id="168" style="edgeStyle=orthogonalEdgeStyle;rounded=0;orthogonalLoop=1;jettySize=auto;html=1;entryX=0.75;entryY=0;entryDx=0;entryDy=0;" edge="1" parent="1" source="162" target="164">
                    <mxGeometry relative="1" as="geometry">
                        <Array as="points">
                            <mxPoint x="2208" y="1390"/>
                            <mxPoint x="2360" y="1390"/>
                        </Array>
                    </mxGeometry>
                </mxCell>
                <mxCell id="171" style="edgeStyle=orthogonalEdgeStyle;rounded=0;orthogonalLoop=1;jettySize=auto;html=1;entryX=1;entryY=0.617;entryDx=0;entryDy=0;entryPerimeter=0;" edge="1" parent="1" source="162" target="170">
                    <mxGeometry relative="1" as="geometry">
                        <Array as="points">
                            <mxPoint x="2180" y="1350"/>
                            <mxPoint x="2430" y="1350"/>
                            <mxPoint x="2430" y="1617"/>
                        </Array>
                    </mxGeometry>
                </mxCell>
                <mxCell id="162" value="http" style="rounded=0;whiteSpace=wrap;html=1;" vertex="1" parent="1">
                    <mxGeometry x="2148" y="1420" width="120" height="60" as="geometry"/>
                </mxCell>
                <mxCell id="169" style="edgeStyle=orthogonalEdgeStyle;rounded=0;orthogonalLoop=1;jettySize=auto;html=1;entryX=1;entryY=0.5;entryDx=0;entryDy=0;" edge="1" parent="1" source="163" target="164">
                    <mxGeometry relative="1" as="geometry">
                        <Array as="points">
                            <mxPoint x="2300" y="1440"/>
                            <mxPoint x="2410" y="1440"/>
                            <mxPoint x="2410" y="1530"/>
                        </Array>
                    </mxGeometry>
                </mxCell>
                <mxCell id="163" value="url" style="rounded=0;whiteSpace=wrap;html=1;" vertex="1" parent="1">
                    <mxGeometry x="2210" y="1460" width="120" height="60" as="geometry"/>
                </mxCell>
                <mxCell id="164" value="f s" style="rounded=0;whiteSpace=wrap;html=1;" vertex="1" parent="1">
                    <mxGeometry x="2270" y="1500" width="120" height="60" as="geometry"/>
                </mxCell>
                <mxCell id="170" value="x x x" style="rounded=0;whiteSpace=wrap;html=1;" vertex="1" parent="1">
                    <mxGeometry x="2270" y="1580" width="120" height="60" as="geometry"/>
                </mxCell>
                <mxCell id="178" style="endArrow=none;dashed=1;html=1;fontFamily=Helvetica;fontSize=11;fontColor=#000000;align=center;strokeColor=#000000;edgeStyle=orthogonalEdgeStyle;" edge="1" parent="1" source="173" target="177">
                    <mxGeometry relative="1" as="geometry"/>
                </mxCell>
                <mxCell id="181" style="endArrow=none;dashed=1;html=1;fontFamily=Helvetica;fontSize=11;fontColor=#000000;align=center;strokeColor=#000000;edgeStyle=orthogonalEdgeStyle;" edge="1" parent="1" source="173" target="180">
                    <mxGeometry relative="1" as="geometry">
                        <Array as="points">
                            <mxPoint x="2200" y="1800"/>
                            <mxPoint x="2015" y="1800"/>
                        </Array>
                    </mxGeometry>
                </mxCell>
                <mxCell id="173" value="Express" style="shape=process;whiteSpace=wrap;html=1;backgroundOutline=1;size=0.016666666666666666;" vertex="1" parent="1">
                    <mxGeometry x="1840" y="1680" width="600" height="60" as="geometry"/>
                </mxCell>
                <mxCell id="174" value="next.js" style="shape=process;whiteSpace=wrap;html=1;backgroundOutline=1;size=0.016666666666666666;" vertex="1" parent="1">
                    <mxGeometry x="2470" y="1680" width="600" height="60" as="geometry"/>
                </mxCell>
                <mxCell id="177" value="x server" style="html=1;dashed=0;whitespace=wrap;shape=mxgraph.dfd.loop" vertex="1" parent="1">
                    <mxGeometry x="1840" y="1780" width="80" height="30" as="geometry"/>
                </mxCell>
                <mxCell id="179" value="" style="shape=flexArrow;endArrow=classic;html=1;entryX=0.916;entryY=1;entryDx=0;entryDy=0;entryPerimeter=0;" edge="1" parent="1" source="177" target="151">
                    <mxGeometry width="50" height="50" relative="1" as="geometry">
                        <mxPoint x="1680" y="1890" as="sourcePoint"/>
                        <mxPoint x="1730" y="1840" as="targetPoint"/>
                    </mxGeometry>
                </mxCell>
                <mxCell id="186" style="endArrow=none;dashed=1;html=1;fontFamily=Helvetica;fontSize=11;fontColor=#000000;align=center;strokeColor=#000000;edgeStyle=orthogonalEdgeStyle;" edge="1" parent="1" source="180" target="182">
                    <mxGeometry relative="1" as="geometry"/>
                </mxCell>
                <mxCell id="187" style="endArrow=none;dashed=1;html=1;fontFamily=Helvetica;fontSize=11;fontColor=#000000;align=center;strokeColor=#000000;edgeStyle=orthogonalEdgeStyle;" edge="1" parent="1" source="180" target="183">
                    <mxGeometry relative="1" as="geometry"/>
                </mxCell>
                <mxCell id="188" style="endArrow=none;dashed=1;html=1;fontFamily=Helvetica;fontSize=11;fontColor=#000000;align=center;strokeColor=#000000;edgeStyle=orthogonalEdgeStyle;exitX=1;exitY=0.75;exitDx=0;exitDy=0;" edge="1" parent="1" source="180" target="185">
                    <mxGeometry relative="1" as="geometry">
                        <Array as="points">
                            <mxPoint x="2230" y="1905"/>
                            <mxPoint x="2230" y="2030"/>
                        </Array>
                    </mxGeometry>
                </mxCell>
                <mxCell id="180" value="cms" style="shape=process;whiteSpace=wrap;html=1;backgroundOutline=1;size=0.02857142857142857;" vertex="1" parent="1">
                    <mxGeometry x="1840" y="1860" width="350" height="60" as="geometry"/>
                </mxCell>
                <mxCell id="182" value="数据库" style="ellipse;shape=cloud;whiteSpace=wrap;html=1;" vertex="1" parent="1">
                    <mxGeometry x="2268" y="1800" width="120" height="80" as="geometry"/>
                </mxCell>
                <mxCell id="183" value="文件管理" style="shape=trapezoid;perimeter=trapezoidPerimeter;whiteSpace=wrap;html=1;fixedSize=1;" vertex="1" parent="1">
                    <mxGeometry x="2270" y="1900" width="120" height="60" as="geometry"/>
                </mxCell>
                <mxCell id="184" style="edgeStyle=orthogonalEdgeStyle;rounded=0;orthogonalLoop=1;jettySize=auto;html=1;exitX=0.5;exitY=1;exitDx=0;exitDy=0;" edge="1" parent="1" source="183" target="183">
                    <mxGeometry relative="1" as="geometry"/>
                </mxCell>
                <mxCell id="185" value="登陆，注册，&lt;br&gt;用户体系" style="shape=step;perimeter=stepPerimeter;whiteSpace=wrap;html=1;fixedSize=1;" vertex="1" parent="1">
                    <mxGeometry x="2270" y="1990" width="120" height="80" as="geometry"/>
                </mxCell>
                <mxCell id="190" value="x server" style="html=1;dashed=0;whitespace=wrap;shape=mxgraph.dfd.loop" vertex="1" parent="1">
                    <mxGeometry x="1840" y="1950" width="80" height="30" as="geometry"/>
                </mxCell>
                <mxCell id="191" value="" style="shape=flexArrow;endArrow=classic;html=1;" edge="1" parent="1" source="190" target="151">
                    <mxGeometry width="50" height="50" relative="1" as="geometry">
                        <mxPoint x="1770" y="1980" as="sourcePoint"/>
                        <mxPoint x="1820" y="1930" as="targetPoint"/>
                    </mxGeometry>
                </mxCell>
            </root>
        </mxGraphModel>
    </diagram>
</mxfile>